<?xml version="1.0" encoding="utf-8"?>
<?xml-stylesheet type="text/xsl" href="rss1.xsl"?>
<rss version="2.0" xmlns:atom="http://www.w3.org/2005/Atom" xmlns:content="http://purl.org/rss/1.0/modules/content/" xmlns:dc="http://purl.org/dc/elements/1.1/" xmlns:media="http://search.yahoo.com/mrss/">
<channel>
 <title>Getty</title>
 <link>http://www.gettyimg.com/</link>
 <atom:link href="http://www.gettyimg.com/" rel="self" type="application/rss+xml" />

 
                <item>
                <title><![CDATA[【Apple Music】WEB-RiP - Charli XCX - 360 'Apple.Music.Web.1080-fstambuk']]></title>
                <link><![CDATA[https://sharemania.us/threads/charli-xcx-360-apple-music-web-1080-fstambuk.244115/]]></link>
                <description><![CDATA[<article>
<blockquote class="messageText SelectQuoteContainer ugc baseHtml">
<div style="text-align: center"><img src="https://i.ibb.co/rQg76DP/Charli-XCX-360-Apple-Music-Web-1080-fstambuk-VTM.gif" class="bbCodeImage LbImage" alt="[​IMG]" data-url="https://i.ibb.co/rQg76DP/Charli-XCX-360-Apple-Music-Web-1080-fstambuk-VTM.gif" style=""><br>
​</div>
<div class="ToggleTriggerAnchor bbCodeSpoilerContainer">
<button type="button" class="button bbCodeSpoilerButton ToggleTrigger Tooltip JsOnly" data-target="> .SpoilerTarget"><span>Spoiler: <span class="SpoilerTitle">Apple Music</span></span></button>
<div class="SpoilerTarget bbCodeSpoilerText">
<div class="bbCodeBlock bbCodeCode">
<div class="type">Code:</div>
<pre>General
Complete name                            : Charli XCX - 360 'Apple.Music.Web.1080-fstambuk'.m4v
Format                                   : MPEG-4
Codec ID                                 : M4V  (M4V /isom/iso2/avc1)
File size                                : 321 MiB
Duration                                 : 4 min 26 s
Overall bit rate                         : 10.1 Mb/s
Frame rate                               : 23.976 FPS
Movie name                               : 360
Performer                                : Charli XCX
Genre                                    : Electronic
ContentType                              : Music Video
Recorded date                            : 2024-05-10 07:00:00 UTC
Copyright                                : ℗ © 2023 Atlantic Recording Corporation
Cover                                    : Yes
Rating                                   : Explicit
GenreID                                  : 1607
AlbumTitleID                             : 432942256
AppleStoreCatalogID                      : 1745749613

Video
ID                                       : 1
Format                                   : AVC
Format/Info                              : Advanced Video Codec
Format profile                           : High@L4
Format settings                          : CABAC / 5 Ref Frames
Format settings, CABAC                   : Yes
Format settings, Reference frames        : 5 frames
Format settings, Slice count             : 8 slices per frame
Codec ID                                 : avc1
Codec ID/Info                            : Advanced Video Coding
Duration                                 : 4 min 26 s
Bit rate                                 : 9 826 kb/s
Width                                    : 1 440 pixels
Height                                   : 1 080 pixels
Display aspect ratio                     : 4:3
Frame rate mode                          : Constant
Frame rate                               : 23.976 (24000/1001) FPS
Color space                              : YUV
Chroma subsampling                       : 4:2:0
Bit depth                                : 8 bits
Scan type                                : Progressive
Bits/(Pixel*Frame)                       : 0.264
Stream size                              : 312 MiB (97%)
Title                                    : Core Media Video
Color range                              : Limited
Color primaries                          : BT.709
Transfer characteristics                 : BT.709
Matrix coefficients                      : BT.709
Codec configuration box                  : avcC

Audio
ID                                       : 2
Format                                   : AAC LC
Format/Info                              : Advanced Audio Codec Low Complexity
Codec ID                                 : 2 / 40 / mp4a-40-2
Duration                                 : 4 min 26 s
Bit rate mode                            : Constant
Bit rate                                 : 256 kb/s
Channel(s)                               : 2 channels
Channel layout                           : L R
Sampling rate                            : 48.0 kHz
Frame rate                               : 46.875 FPS (1024 SPF)
Compression mode                         : Lossy
Stream size                              : 8.13 MiB (3%)
Title                                    : Core Media Audio
Default                                  : Yes
Alternate group                          : 1

</pre>
</div><div style="text-align: center">​</div></div>
</div><div style="text-align: center"><br>
<div class="bbCodeBlock bbCodeVfcHH HiddenContent">
<div class="attribution type">Hidden Content:</div>
<blockquote>You must reply before you can see the hidden data contained here.</blockquote>
</div></div>
<div class="messageTextEndMarker">&nbsp;</div>
</blockquote>
</article>]]></description>
                <author><![CDATA[fstambuk]]></author>
                </item>

                
                <item>
                <title><![CDATA[【Apple Music】WEB-RiP - Megan Thee Stallion - BOA 'Apple.Music.Web.4K-fstambuk']]></title>
                <link><![CDATA[https://sharemania.us/threads/megan-thee-stallion-boa-apple-music-web-4k-fstambuk.244116/]]></link>
                <description><![CDATA[<article>
<blockquote class="messageText SelectQuoteContainer ugc baseHtml">
<div style="text-align: center"><img src="https://i.ibb.co/THL89B0/Megan-Thee-Stallion-BOA-Apple-Music-Web-4-K-fstambuk-VTM.gif" class="bbCodeImage LbImage" alt="[​IMG]" data-url="https://i.ibb.co/THL89B0/Megan-Thee-Stallion-BOA-Apple-Music-Web-4-K-fstambuk-VTM.gif" style=""><br>
​</div>
<div class="ToggleTriggerAnchor bbCodeSpoilerContainer">
<button type="button" class="button bbCodeSpoilerButton ToggleTrigger Tooltip JsOnly" data-target="> .SpoilerTarget"><span>Spoiler: <span class="SpoilerTitle">Apple Music</span></span></button>
<div class="SpoilerTarget bbCodeSpoilerText">
<div class="bbCodeBlock bbCodeCode">
<div class="type">Code:</div>
<pre>General
Complete name                            : Megan Thee Stallion - BOA 'Apple.Music.Web.4K-fstambuk'.m4v
Format                                   : MPEG-4
Format profile                           : Base Media
Codec ID                                 : isom (isom/iso2/mp41)
File size                                : 559 MiB
Duration                                 : 3 min 45 s
Overall bit rate                         : 20.8 Mb/s
Frame rate                               : 23.976 FPS
Movie name                               : BOA
Performer                                : Megan Thee Stallion
Genre                                    : Hip-Hop/Rap
ContentType                              : Music Video
Recorded date                            : 2024-05-10 07:00:00 UTC
Copyright                                : ℗ © 2024 Hot Girl Productions LLC
Cover                                    : Yes
Rating                                   : Explicit
GenreID                                  : 1618
AlbumTitleID                             : 1258989914
AppleStoreCatalogID                      : 1745753655

Video
ID                                       : 1
Format                                   : HEVC
Format/Info                              : High Efficiency Video Coding
Format profile                           : Main 10@L5@High
Codec ID                                 : hvc1
Codec ID/Info                            : High Efficiency Video Coding
Duration                                 : 3 min 45 s
Bit rate                                 : 20.6 Mb/s
Width                                    : 3 840 pixels
Height                                   : 2 160 pixels
Display aspect ratio                     : 16:9
Frame rate mode                          : Constant
Frame rate                               : 23.976 (24000/1001) FPS
Color space                              : YUV
Chroma subsampling                       : 4:2:0
Bit depth                                : 10 bits
Scan type                                : Progressive
Bits/(Pixel*Frame)                       : 0.103
Stream size                              : 552 MiB (99%)
Title                                    : Core Media Video
Color range                              : Limited
Color primaries                          : BT.709
Transfer characteristics                 : BT.709
Matrix coefficients                      : BT.709
Codec configuration box                  : hvcC

Audio
ID                                       : 2
Format                                   : AAC LC
Format/Info                              : Advanced Audio Codec Low Complexity
Codec ID                                 : 2 / 40 / mp4a-40-2
Duration                                 : 3 min 45 s
Bit rate mode                            : Constant
Bit rate                                 : 250 kb/s
Channel(s)                               : 2 channels
Channel layout                           : L R
Sampling rate                            : 48.0 kHz
Frame rate                               : 46.875 FPS (1024 SPF)
Compression mode                         : Lossy
Stream size                              : 6.71 MiB (1%)
Title                                    : Core Media Audio
Default                                  : Yes
Alternate group                          : 1

</pre>
</div><div style="text-align: center">​</div></div>
</div><div style="text-align: center"><br>
<div class="bbCodeBlock bbCodeVfcHH HiddenContent">
<div class="attribution type">Hidden Content:</div>
<blockquote>You must reply before you can see the hidden data contained here.</blockquote>
</div></div>
<div class="messageTextEndMarker">&nbsp;</div>
</blockquote>
</article>]]></description>
                <author><![CDATA[fstambuk]]></author>
                </item>

                </channel></rss>